<svg xmlns="http://www.w3.org/2000/svg" width="60px" height="96" viewBox="0 0 56 96" fill="none"><path d="M26.947 59.3656L26.9167 59.0858C26.8627 58.3023 26.8088 57.5124 26.7351 56.7289C25.6272 43.6875 22.0823 31.3112 16.5504 20.0501C16.5504 20.0501 16.5504 20.0501 16.5439 20.0436C16.4228 19.7911 16.3018 19.5451 16.1741 19.3005C16.1202 19.1938 16.0662 19.0818 16.0136 18.9751C15.8925 18.7487 15.7583 18.5235 15.6175 18.3114C15.6109 18.2984 15.6044 18.2854 15.5978 18.2776C14.2951 16.319 12.1739 14.9043 9.63566 14.5725C4.98283 13.9478 0.70632 17.1753 0.0760283 21.7771C-0.105559 23.1383 0.0418163 24.4593 0.478678 25.6748C0.478678 25.6813 0.485257 25.6943 0.491836 25.7073C0.612894 25.9533 0.727373 26.1992 0.833957 26.4504C0.920803 26.6235 0.99449 26.7953 1.06949 26.9749C1.07607 26.9879 1.08265 27.0009 1.08923 27.0152C1.28398 27.4265 1.46556 27.8455 1.64584 28.2633C1.75373 28.5157 1.86032 28.7682 1.96822 29.0272C2.15638 29.4528 2.33139 29.8835 2.50508 30.3221C2.54588 30.4145 2.58535 30.5082 2.62614 30.6071C2.84063 31.1381 3.04853 31.669 3.25775 32.2078C3.28407 32.2742 3.3117 32.3406 3.33144 32.4069C3.54592 32.9574 3.75382 33.5092 3.95515 34.0675C4.00252 34.2068 4.05647 34.3526 4.1091 34.4996C4.31043 35.0709 4.51175 35.6422 4.7065 36.2188C4.86045 36.6769 5.00914 37.135 5.15652 37.5931C5.29731 38.0043 5.42495 38.4168 5.55259 38.8346C5.72102 39.3656 5.87497 39.9044 6.02892 40.4418C6.18946 40.9793 6.34473 41.5246 6.4921 42.0686C6.61316 42.4929 6.71974 42.9119 6.82764 43.3362C6.92896 43.7019 7.01581 44.0663 7.10924 44.4319C7.36451 45.4549 7.60663 46.483 7.82111 47.5189C7.8948 47.8507 7.96848 48.1826 8.02901 48.5145C8.14349 49.0259 8.2435 49.5309 8.33824 50.041C10.3462 60.5915 10.7212 71.6209 9.23828 82.8365C9.21854 82.9887 9.19749 83.1488 9.17775 83.3011C9.15012 83.5158 9.11854 83.7279 9.08827 83.9414L9.08696 83.9466V83.9557C9.08169 83.9947 9.07643 84.0325 9.07117 84.0715C9.0738 84.0637 9.07775 84.0559 9.08038 84.0468L8.97116 85.6371C8.97116 85.6371 11.7621 85.6501 11.9002 85.5122C12.0384 85.3755 16.5268 82.0803 16.5268 82.0803L27.2009 60.0072L26.947 59.3656Z" fill="url(#paint0_linear_5777_6002)"/><path d="M55.6517 23.3171V23.4095C55.6385 23.6815 55.6175 23.947 55.5977 24.2268C54.0135 48.2964 44.1775 70.1496 28.8702 87.0406C27.6346 88.4084 23.8279 92.0003 23.6805 92.1734C22.2305 93.8131 20.2369 95.0091 17.8803 95.2213C17.6724 95.2408 17.4645 95.2551 17.2631 95.2616C12.8524 95.3475 9.04566 92.0406 8.63643 87.6262C8.61669 87.4401 8.60222 87.2475 8.60222 87.0614C8.77065 86.0724 8.9246 85.0768 9.07197 84.0734C9.40094 83.1377 9.89833 82.2735 10.522 81.5239C10.5352 81.5109 10.5418 81.4979 10.5484 81.4901C10.7839 81.2506 11.0115 81.006 11.2471 80.76C11.2602 80.7405 11.2668 80.734 11.2813 80.7197C12.6642 79.2452 13.9998 77.7381 15.2894 76.1908C18.8211 71.9612 22.0226 67.4531 24.8424 62.7186C25.5609 61.5239 26.2517 60.3149 26.9175 59.0863C27.1662 58.6282 27.4149 58.1702 27.6557 57.7056C33.3349 46.883 37.1416 35.0038 38.693 22.5141C38.6996 22.3944 38.7128 22.2747 38.7338 22.1628C38.7338 22.1289 38.7404 22.0964 38.747 22.0704C39.3115 18.3249 42.3853 15.3043 46.3671 14.9452C51.0462 14.5131 55.1819 17.9202 55.6188 22.5415C55.6451 22.7992 55.6517 23.0646 55.6517 23.3171Z" fill="url(#paint1_linear_5777_6002)"/><path d="M28.3861 15.1302C32.6105 15.1302 36.0351 11.7432 36.0351 7.56508C36.0351 3.387 32.6105 0 28.3861 0C24.1617 0 20.7371 3.387 20.7371 7.56508C20.7371 11.7432 24.1617 15.1302 28.3861 15.1302Z" fill="url(#paint2_linear_5777_6002)"/><defs><linearGradient id="paint0_linear_5777_6002" x1="-11.1981" y1="24.737" x2="83.4261" y2="136.658" gradientUnits="userSpaceOnUse"><stop offset="4.1024e-7" stop-color="#FB8404"/><stop offset="0.4183" stop-color="#FE1E14"/></linearGradient><linearGradient id="paint1_linear_5777_6002" x1="41.9308" y1="42.8964" x2="-35.9436" y2="157.067" gradientUnits="userSpaceOnUse"><stop offset="0.6714" stop-color="#FB8404"/><stop offset="1" stop-color="#FE1E14"/></linearGradient><linearGradient id="paint2_linear_5777_6002" x1="20.7376" y1="7.56472" x2="36.0349" y2="7.56472" gradientUnits="userSpaceOnUse"><stop offset="0.2866" stop-color="#FB8404"/><stop offset="1" stop-color="#FE1E14"/></linearGradient></defs></svg>